<?xml version="1.0" encoding="utf-8"?>
<svg viewBox="-10 10 50 30" xmlns="http://www.w3.org/2000/svg">
  <defs>
    <clipPath id="clipPath370" clipPathUnits="userSpaceOnUse">
      <path id="path368" d="m 931.98,2920.57 c -191.023,0 -381.558,58.64 -383.824,176.67 L 511.84,4790.46 c -1.457,68.62 165.625,189.19 234.769,189.19 h 373.571 c 69.14,0 236.23,-120.61 234.77,-189.19 l -36.33,-1693.22 c -2.53,-117.52 -194.83,-176.67 -386.64,-176.67 m 1.415,1300.36 c -83.282,0 -166.567,-5.44 -249.094,-16.33 -23.36,-3.08 -40.016,-21.06 -38.496,-41.56 10.367,-140.48 5.101,-313.75 8.746,-569.46 -0.477,-51.09 139.183,-76.64 278.844,-76.64 139.655,0 279.315,25.55 278.845,76.64 3.64,255.71 -1.61,428.98 8.75,569.46 1.51,20.5 -15.15,38.48 -38.5,41.56 -82.53,10.89 -165.81,16.33 -249.095,16.33"/>
    </clipPath>
    <linearGradient id="linearGradient380" spreadMethod="pad" gradientTransform="matrix(-0.000005, -123.843807, 123.843807, -0.000005, -54.780188, 83.826416)" gradientUnits="userSpaceOnUse" y2="0" x2="1" y1="0" x1="0">
      <stop id="stop372" offset="0" style="stop-opacity:1;stop-color:#141417"/>
      <stop id="stop374" offset="0.07" style="stop-opacity:1;stop-color:#20212a"/>
      <stop id="stop376" offset="0.91" style="stop-opacity:1;stop-color:#20212a"/>
      <stop id="stop378" offset="1" style="stop-opacity:1;stop-color:#141417"/>
    </linearGradient>
    <clipPath id="clipPath568" clipPathUnits="userSpaceOnUse">
      <path id="path566" d="m 933.395,3516.94 c -139.661,0 -279.321,25.55 -278.844,76.64 -3.645,255.71 1.621,428.98 -8.746,569.46 -1.52,20.5 15.136,38.48 38.496,41.56 82.527,10.89 165.812,16.33 249.094,16.33 83.285,0 166.565,-5.44 249.095,-16.33 23.35,-3.08 40.01,-21.06 38.5,-41.56 -10.36,-140.48 -5.11,-313.75 -8.75,-569.46 0.47,-51.09 -139.19,-76.64 -278.845,-76.64 m 199.635,654.51 c -6.31,-88.05 -10.37,-190.74 -11.26,-300.39 -0.92,-109.63 1.46,-212.3 6.32,-300.35 6.31,88.05 10.36,190.72 11.25,300.35 0.91,109.65 -1.43,212.34 -6.31,300.39 m -399.276,0 c -4.859,-88.05 -7.215,-190.74 -6.309,-300.39 0.899,-109.63 4.946,-212.3 11.25,-300.35 4.864,88.05 7.239,190.72 6.328,300.35 -0.898,109.65 -4.949,212.34 -11.269,300.39"/>
    </clipPath>
    <linearGradient id="linearGradient578" spreadMethod="pad" gradientTransform="matrix(-77.683927, 0.000007, -0.000007, -77.683927, -15.45416, 101.863706)" gradientUnits="userSpaceOnUse" y2="0" x2="1" y1="0" x1="0">
      <stop id="stop570" offset="0" style="stop-opacity:1;stop-color:#141417"/>
      <stop id="stop572" offset="0.14" style="stop-opacity:1;stop-color:#4d4f4e"/>
      <stop id="stop574" offset="0.8646" style="stop-opacity:1;stop-color:#41434a"/>
      <stop id="stop576" offset="1" style="stop-opacity:1;stop-color:#141417"/>
    </linearGradient>
    <clipPath id="clipPath588" clipPathUnits="userSpaceOnUse">
      <path id="path586" d="m 1128.09,3570.71 c -4.86,88.05 -7.24,190.72 -6.32,300.35 0.89,109.65 4.95,212.34 11.26,300.39 4.88,-88.05 7.22,-190.74 6.31,-300.39 -0.89,-109.63 -4.94,-212.3 -11.25,-300.35 m -389.395,0 c -6.304,88.05 -10.351,190.72 -11.25,300.35 -0.906,109.65 1.45,212.34 6.309,300.39 6.32,-88.05 10.371,-190.74 11.269,-300.39 0.911,-109.63 -1.464,-212.3 -6.328,-300.35"/>
    </clipPath>
    <linearGradient id="linearGradient598" spreadMethod="pad" gradientTransform="matrix(-77.683927, 0.000007, -0.000007, -77.683927, -15.45416, 101.863706)" gradientUnits="userSpaceOnUse" y2="0" x2="1" y1="0" x1="0">
      <stop id="stop590" offset="0" style="stop-opacity:1;stop-color:#131315"/>
      <stop id="stop592" offset="0.14" style="stop-opacity:1;stop-color:#201f24"/>
      <stop id="stop594" offset="0.8646" style="stop-opacity:1;stop-color:#1c1d22"/>
      <stop id="stop596" offset="1" style="stop-opacity:1;stop-color:#131315"/>
    </linearGradient>
    <linearGradient id="linearGradient1956" spreadMethod="pad" gradientTransform="matrix(-0.000001, 34.856075, -35.729033, -0.000001, 239.941913, 407.819165)" gradientUnits="userSpaceOnUse" y2="0" x2="1" y1="0" x1="0">
      <stop id="stop1948" offset="0" style="stop-opacity:1;stop-color:#3a3a3c"/>
      <stop id="stop1950" offset="0.27" style="stop-opacity:1;stop-color:#7a7c81"/>
      <stop id="stop1952" offset="0.54" style="stop-opacity:1;stop-color:#a3a5a8"/>
      <stop id="stop1954" offset="1" style="stop-opacity:1;stop-color:#211c1c"/>
    </linearGradient>
    <linearGradient id="linearGradient1968" spreadMethod="pad" gradientTransform="matrix(-0.000001, 34.856075, -35.729033, -0.000001, 239.939581, 307.946204)" gradientUnits="userSpaceOnUse" y2="0" x2="1" y1="0" x1="0">
      <stop id="stop1960" offset="0" style="stop-opacity:1;stop-color:#3a3a3c"/>
      <stop id="stop1962" offset="0.27" style="stop-opacity:1;stop-color:#7a7c81"/>
      <stop id="stop1964" offset="0.54" style="stop-opacity:1;stop-color:#a3a5a8"/>
      <stop id="stop1966" offset="1" style="stop-opacity:1;stop-color:#211c1c"/>
    </linearGradient>
    <linearGradient id="linearGradient1982" spreadMethod="pad" gradientTransform="matrix(-0.000001, 34.856075, -35.729033, -0.000001, 359.24993, 407.818492)" gradientUnits="userSpaceOnUse" y2="0" x2="1" y1="0" x1="0">
      <stop id="stop1974" offset="0" style="stop-opacity:1;stop-color:#3a3a3c"/>
      <stop id="stop1976" offset="0.27" style="stop-opacity:1;stop-color:#7a7c81"/>
      <stop id="stop1978" offset="0.54" style="stop-opacity:1;stop-color:#a3a5a8"/>
      <stop id="stop1980" offset="1" style="stop-opacity:1;stop-color:#211c1c"/>
    </linearGradient>
    <linearGradient id="linearGradient1994" spreadMethod="pad" gradientTransform="matrix(-0.000001, 34.856075, -35.729033, -0.000001, 359.2476, 307.94553)" gradientUnits="userSpaceOnUse" y2="0" x2="1" y1="0" x1="0">
      <stop id="stop1986" offset="0" style="stop-opacity:1;stop-color:#3a3a3c"/>
      <stop id="stop1988" offset="0.27" style="stop-opacity:1;stop-color:#7a7c81"/>
      <stop id="stop1990" offset="0.54" style="stop-opacity:1;stop-color:#a3a5a8"/>
      <stop id="stop1992" offset="1" style="stop-opacity:1;stop-color:#211c1c"/>
    </linearGradient>
    <linearGradient id="linearGradient2018" spreadMethod="pad" gradientTransform="matrix(-105.228645, 0.000009, -0.00001, -102.657612, 368.274424, 377.215539)" gradientUnits="userSpaceOnUse" y2="0" x2="1" y1="0" x1="0">
      <stop id="stop2008" offset="0" style="stop-opacity:1;stop-color:#d3499b"/>
      <stop id="stop2010" offset="0.07" style="stop-opacity:1;stop-color:#f473bf"/>
      <stop id="stop2012" offset="0.51" style="stop-opacity:1;stop-color:#f8a9d8"/>
      <stop id="stop2014" offset="0.91" style="stop-opacity:1;stop-color:#f473bf"/>
      <stop id="stop2016" offset="1" style="stop-opacity:1;stop-color:#ca4192"/>
    </linearGradient>
    <linearGradient id="linearGradient2034" spreadMethod="pad" gradientTransform="matrix(-0.000002, -53.823774, 55.171776, -0.000002, 217.103227, 389.998776)" gradientUnits="userSpaceOnUse" y2="0" x2="1" y1="0" x1="0">
      <stop id="stop2024" offset="0" style="stop-opacity:1;stop-color:#d3499b"/>
      <stop id="stop2026" offset="0.22" style="stop-opacity:1;stop-color:#f473bf"/>
      <stop id="stop2028" offset="0.51" style="stop-opacity:1;stop-color:#f8a9d8"/>
      <stop id="stop2030" offset="0.78" style="stop-opacity:1;stop-color:#f473bf"/>
      <stop id="stop2032" offset="1" style="stop-opacity:1;stop-color:#ca4192"/>
    </linearGradient>
    <linearGradient id="linearGradient2050" spreadMethod="pad" gradientTransform="matrix(91.406004, 0, 0, 89.172704, 339.776189, 377.217825)" gradientUnits="userSpaceOnUse" y2="0" x2="1" y1="0" x1="0">
      <stop id="stop2040" offset="0" style="stop-opacity:1;stop-color:#d3499b"/>
      <stop id="stop2042" offset="0.22" style="stop-opacity:1;stop-color:#f473bf"/>
      <stop id="stop2044" offset="0.51" style="stop-opacity:1;stop-color:#f8a9d8"/>
      <stop id="stop2046" offset="0.78" style="stop-opacity:1;stop-color:#f473bf"/>
      <stop id="stop2048" offset="1" style="stop-opacity:1;stop-color:#ca4192"/>
    </linearGradient>
    <linearGradient id="linearGradient2064" spreadMethod="pad" gradientTransform="matrix(-67.208531, 0.000006, -0.000006, -65.566437, 422.094049, 377.216426)" gradientUnits="userSpaceOnUse" y2="0" x2="1" y1="0" x1="0">
      <stop id="stop2054" offset="0" style="stop-opacity:1;stop-color:#d3499b"/>
      <stop id="stop2056" offset="0.22" style="stop-opacity:1;stop-color:#f473bf"/>
      <stop id="stop2058" offset="0.51" style="stop-opacity:1;stop-color:#f8a9d8"/>
      <stop id="stop2060" offset="0.78" style="stop-opacity:1;stop-color:#f473bf"/>
      <stop id="stop2062" offset="1" style="stop-opacity:1;stop-color:#ca4192"/>
    </linearGradient>
    <radialGradient id="radialGradient2074" spreadMethod="pad" gradientTransform="matrix(60.622681, 0, 0, 59.1415, 333.921838, 412.585862)" gradientUnits="userSpaceOnUse" r="1" cy="0" cx="0">
      <stop id="stop2070" offset="0" style="stop-opacity:1;stop-color:#999c9f"/>
      <stop id="stop2072" offset="1" style="stop-opacity:1;stop-color:#5f6167"/>
    </radialGradient>
    <radialGradient id="radialGradient2082" spreadMethod="pad" gradientTransform="matrix(60.192829, 0, 0, 58.72215, 333.534342, 410.286334)" gradientUnits="userSpaceOnUse" r="1" cy="0" cx="0">
      <stop id="stop2078" offset="0" style="stop-opacity:1;stop-color:#ffffff"/>
      <stop id="stop2080" offset="1" style="stop-opacity:1;stop-color:#80d6f3"/>
    </radialGradient>
    <linearGradient id="linearGradient2096" spreadMethod="pad" gradientTransform="matrix(-0.123468, -6.900665, 7.07349, -0.120452, 295.87411, 333.663328)" gradientUnits="userSpaceOnUse" y2="0" x2="1" y1="0" x1="0">
      <stop id="stop2088" offset="0" style="stop-opacity:1;stop-color:#d2d3d3"/>
      <stop id="stop2090" offset="0.11" style="stop-opacity:1;stop-color:#f5f5f5"/>
      <stop id="stop2092" offset="0.68" style="stop-opacity:1;stop-color:#f5f5f5"/>
      <stop id="stop2094" offset="1" style="stop-opacity:1;stop-color:#d2d3d3"/>
    </linearGradient>
    <linearGradient id="linearGradient2110" spreadMethod="pad" gradientTransform="matrix(-0.246897, 6.897492, -7.070239, -0.240864, 295.981899, 420.730388)" gradientUnits="userSpaceOnUse" y2="0" x2="1" y1="0" x1="0">
      <stop id="stop2102" offset="0" style="stop-opacity:1;stop-color:#d2d3d3"/>
      <stop id="stop2104" offset="0.11" style="stop-opacity:1;stop-color:#f5f5f5"/>
      <stop id="stop2106" offset="0.68" style="stop-opacity:1;stop-color:#f5f5f5"/>
      <stop id="stop2108" offset="1" style="stop-opacity:1;stop-color:#d2d3d3"/>
    </linearGradient>
    <linearGradient id="linearGradient2126" spreadMethod="pad" gradientTransform="matrix(-0.000003, -80.946517, 82.973798, -0.000003, 272.987376, 417.352665)" gradientUnits="userSpaceOnUse" y2="0" x2="1" y1="0" x1="0">
      <stop id="stop2116" offset="0" style="stop-opacity:1;stop-color:#d3499b"/>
      <stop id="stop2118" offset="0.22" style="stop-opacity:1;stop-color:#f473bf"/>
      <stop id="stop2120" offset="0.51" style="stop-opacity:1;stop-color:#f8a9d8"/>
      <stop id="stop2122" offset="0.78" style="stop-opacity:1;stop-color:#f473bf"/>
      <stop id="stop2124" offset="1" style="stop-opacity:1;stop-color:#ca4192"/>
    </linearGradient>
    <linearGradient id="linearGradient2136" spreadMethod="pad" gradientTransform="matrix(10.171217, 0, 0, 9.922705, 310.715645, 336.082607)" gradientUnits="userSpaceOnUse" y2="0" x2="1" y1="0" x1="0">
      <stop id="stop2132" offset="0" style="stop-opacity:1;stop-color:#ffffff"/>
      <stop id="stop2134" offset="1" style="stop-opacity:1;stop-color:#80d6f3"/>
    </linearGradient>
    <linearGradient id="linearGradient2146" spreadMethod="pad" gradientTransform="matrix(10.909283, 0, 0, 10.64274, 260.197617, 336.335763)" gradientUnits="userSpaceOnUse" y2="0" x2="1" y1="0" x1="0">
      <stop id="stop2142" offset="0" style="stop-opacity:1;stop-color:#ffffff"/>
      <stop id="stop2144" offset="1" style="stop-opacity:1;stop-color:#80d6f3"/>
    </linearGradient>
    <linearGradient id="linearGradient2156" spreadMethod="pad" gradientTransform="matrix(-10.170495, 0.000001, -0.000001, -9.922001, 317.840992, 418.347739)" gradientUnits="userSpaceOnUse" y2="0" x2="1" y1="0" x1="0">
      <stop id="stop2152" offset="0" style="stop-opacity:1;stop-color:#ffffff"/>
      <stop id="stop2154" offset="1" style="stop-opacity:1;stop-color:#80d6f3"/>
    </linearGradient>
    <linearGradient id="linearGradient2166" spreadMethod="pad" gradientTransform="matrix(-10.911066, 0.000001, -0.000001, -10.644478, 267.843085, 418.095426)" gradientUnits="userSpaceOnUse" y2="0" x2="1" y1="0" x1="0">
      <stop id="stop2162" offset="0" style="stop-opacity:1;stop-color:#ffffff"/>
      <stop id="stop2164" offset="1" style="stop-opacity:1;stop-color:#80d6f3"/>
    </linearGradient>
    <radialGradient id="radialGradient2192" spreadMethod="pad" gradientTransform="matrix(20.699947, 0, 0, 20.194189, 221.22197, 366.216692)" gradientUnits="userSpaceOnUse" r="1" cy="0" cx="0">
      <stop id="stop2188" offset="0" style="stop-opacity:1;stop-color:#ffffff"/>
      <stop id="stop2190" offset="1" style="stop-opacity:1;stop-color:#80d6f3"/>
    </radialGradient>
  </defs>
  <path id="path382" style="fill:url(#linearGradient380);fill-opacity:1;fill-rule:nonzero;stroke:none" d="M -54.969 228.313 C -80.438 228.313 -105.843 220.494 -106.145 204.757 L -110.987 -21.005 C -111.182 -30.155 -88.904 -46.231 -79.685 -46.231 L -29.875 -46.231 C -20.657 -46.231 1.622 -30.149 1.427 -21.005 L -3.417 204.757 C -3.754 220.426 -29.394 228.313 -54.969 228.313 M -54.78 54.932 C -65.884 54.932 -76.989 55.657 -87.993 57.109 C -91.107 57.52 -93.328 59.917 -93.125 62.651 C -91.743 81.381 -92.445 104.484 -91.959 138.578 C -92.023 145.39 -73.401 148.797 -54.78 148.797 C -36.159 148.797 -17.538 145.39 -17.601 138.578 C -17.116 104.484 -17.816 81.381 -16.434 62.651 C -16.233 59.917 -18.454 57.52 -21.567 57.109 C -32.571 55.657 -43.675 54.932 -54.78 54.932" clip-path="url(#clipPath370)"/>
  <path id="path580" style="fill:url(#linearGradient578);fill-opacity:1;fill-rule:nonzero;stroke:none" d="M -54.78 148.797 C -73.401 148.797 -92.023 145.39 -91.959 138.578 C -92.445 104.484 -91.743 81.381 -93.125 62.651 C -93.328 59.917 -91.107 57.52 -87.993 57.109 C -76.989 55.657 -65.884 54.932 -54.78 54.932 C -43.675 54.932 -32.571 55.657 -21.567 57.109 C -18.454 57.52 -16.233 59.917 -16.434 62.651 C -17.816 81.381 -17.116 104.484 -17.601 138.578 C -17.538 145.39 -36.159 148.797 -54.78 148.797 M -28.162 61.529 C -29.003 73.269 -29.545 86.961 -29.663 101.581 C -29.786 116.198 -29.469 129.888 -28.821 141.628 C -27.979 129.888 -27.439 116.198 -27.321 101.581 C -27.199 86.961 -27.511 73.269 -28.162 61.529 M -81.399 61.529 C -82.047 73.269 -82.361 86.961 -82.24 101.581 C -82.12 116.198 -81.581 129.888 -80.74 141.628 C -80.091 129.888 -79.775 116.198 -79.896 101.581 C -80.016 86.961 -80.556 73.269 -81.399 61.529" clip-path="url(#clipPath568)"/>
  <path id="path600" style="fill:url(#linearGradient598);fill-opacity:1;fill-rule:nonzero;stroke:none" d="M -28.821 141.628 C -29.469 129.888 -29.786 116.198 -29.663 101.581 C -29.545 86.961 -29.003 73.269 -28.162 61.529 C -27.511 73.269 -27.199 86.961 -27.321 101.581 C -27.439 116.198 -27.979 129.888 -28.821 141.628 M -80.74 141.628 C -81.581 129.888 -82.12 116.198 -82.24 101.581 C -82.361 86.961 -82.047 73.269 -81.399 61.529 C -80.556 73.269 -80.016 86.961 -79.896 101.581 C -79.775 116.198 -80.091 129.888 -80.74 141.628" clip-path="url(#clipPath588)"/>
  <g transform="matrix(0.225769, 0, 0, 0.245079, -55.511127, -67.447678)">
    <path id="path1938" style="fill:#7a7c81;fill-opacity:1;fill-rule:evenodd;stroke:none" d="M 207.94 344.865 C 210.278 345.557 213.148 346.131 216.209 346.195 C 216.934 346.211 218.062 346.209 219.236 346.036 C 213.843 344.463 207.775 342.524 200.686 340.237 C 200.863 342.392 205.912 344.265 207.94 344.865" transform="matrix(0, 0.921209, -1.08553, 0, 582.53568, 149.801194)"/>
    <path id="path1940" style="fill:#fdfccd;fill-opacity:1;fill-rule:evenodd;stroke:none" d="M 208.768 344.379 C 212.029 345.343 215.482 345.784 218.163 345.676 C 213.366 344.255 208.034 342.556 201.94 340.592 C 202.695 341.873 205.172 343.314 208.768 344.379" transform="matrix(0, 0.921209, -1.08553, 0, 582.5424, 149.640645)"/>
    <path id="path1942" style="fill:#7a7c81;fill-opacity:1;fill-rule:evenodd;stroke:none" d="M 210.908 411.36 C 208.567 412.052 205.697 412.626 202.638 412.69 C 202.271 412.698 201.802 412.704 201.279 412.679 C 206.21 411.241 211.7 409.461 217.987 407.335 C 217.055 409.231 212.744 410.816 210.908 411.36" transform="matrix(0, 0.921209, -1.08553, 0, 654.717628, 216.90016)"/>
    <path id="path1944" style="fill:#fdfccd;fill-opacity:1;fill-rule:evenodd;stroke:none" d="M 210.134 411.014 C 207.727 411.724 205.22 412.15 202.993 412.285 C 207.026 411.073 211.423 409.651 216.312 408.005 C 215.177 409.067 213.016 410.16 210.134 411.014" transform="matrix(0, 0.921209, -1.08553, 0, 654.877185, 217.011231)"/>
    <path id="path1946" style="fill:#3a3a3c;fill-opacity:1;fill-rule:evenodd;stroke:none" d="M 181.833 395.334 L 181.833 359.098 C 181.833 358.047 182.714 357.191 183.788 357.191 L 187.681 357.191 C 188.761 357.191 189.637 358.047 189.637 359.098 L 189.637 395.334 C 189.637 396.385 188.761 397.239 187.681 397.239 L 183.788 397.239 C 182.714 397.239 181.833 396.385 181.833 395.334 Z M 290.249 395.334 L 290.249 359.098 C 290.249 358.047 291.127 357.191 292.204 357.191 L 296.097 357.191 C 297.172 357.191 298.05 358.047 298.05 359.098 L 298.05 395.334 C 298.05 396.385 297.172 397.239 296.097 397.239 L 292.204 397.239 C 291.127 397.239 290.249 396.385 290.249 395.334" transform="matrix(0, 0.921209, -1.08553, 0, 649.419685, 156.178744)"/>
    <path id="path1958" style="fill:url(#linearGradient1956);fill-opacity:1;fill-rule:evenodd;stroke:none" d="M 236.75 445.27 L 236.75 409.034 C 236.75 408.367 237.31 407.819 237.996 407.819 L 241.889 407.819 C 242.576 407.819 243.132 408.367 243.132 409.034 L 243.132 445.27 C 243.132 445.939 242.576 446.485 241.889 446.485 L 237.996 446.485 C 237.31 446.485 236.75 445.939 236.75 445.27" transform="matrix(0, 0.921209, -1.08553, 0, 703.627286, 206.116175)"/>
    <path id="path1970" style="fill:url(#linearGradient1968);fill-opacity:1;fill-rule:evenodd;stroke:none" d="M 236.749 345.397 L 236.749 309.161 C 236.749 308.494 237.311 307.946 237.995 307.946 L 241.888 307.946 C 242.575 307.946 243.133 308.494 243.133 309.161 L 243.133 345.397 C 243.133 346.066 242.575 346.612 241.888 346.612 L 237.995 346.612 C 237.311 346.612 236.749 346.066 236.749 345.397" transform="matrix(0, 0.921209, -1.08553, 0, 595.21216, 106.243196)"/>
    <path id="path1972" style="fill:#3a3a3c;fill-opacity:1;fill-rule:evenodd;stroke:none" d="M 301.141 395.331 L 301.141 359.098 C 301.141 358.047 302.022 357.19 303.096 357.19 L 306.989 357.19 C 308.069 357.19 308.945 358.047 308.945 359.098 L 308.945 395.331 C 308.945 396.382 308.069 397.241 306.989 397.241 L 303.096 397.241 C 302.022 397.241 301.141 396.382 301.141 395.331 Z M 409.557 395.331 L 409.557 359.098 C 409.557 358.047 410.435 357.19 411.512 357.19 L 415.405 357.19 C 416.48 357.19 417.358 358.047 417.358 359.098 L 417.358 395.331 C 417.358 396.382 416.48 397.241 415.405 397.241 L 411.512 397.241 C 410.435 397.241 409.557 396.382 409.557 395.331" transform="matrix(0, 0.921209, -1.08553, 0, 768.728221, 46.271619)"/>
    <path id="path1984" style="fill:url(#linearGradient1982);fill-opacity:1;fill-rule:evenodd;stroke:none" d="M 356.058 445.267 L 356.058 409.034 C 356.058 408.365 356.618 407.819 357.304 407.819 L 361.197 407.819 C 361.884 407.819 362.44 408.365 362.44 409.034 L 362.44 445.267 C 362.44 445.935 361.884 446.485 361.197 446.485 L 357.304 446.485 C 356.618 446.485 356.058 445.935 356.058 445.267" transform="matrix(0, 0.921209, -1.08553, 0, 822.935292, 96.208562)"/>
    <path id="path1996" style="fill:url(#linearGradient1994);fill-opacity:1;fill-rule:evenodd;stroke:none" d="M 356.057 345.394 L 356.057 309.161 C 356.057 308.492 356.619 307.946 357.303 307.946 L 361.196 307.946 C 361.883 307.946 362.441 308.492 362.441 309.161 L 362.441 345.394 C 362.441 346.062 361.883 346.612 361.196 346.612 L 357.303 346.612 C 356.619 346.612 356.057 346.062 356.057 345.394" transform="matrix(0, 0.921209, -1.08553, 0, 714.520174, -3.664424)"/>
    <path id="path1998" style="fill:#7a7c81;fill-opacity:1;fill-rule:evenodd;stroke:none" d="M 404.294 337.042 C 406.354 335.21 408.935 333.335 411.808 332.074 C 413.04 331.533 415.552 330.567 417.5 331.185 C 412.98 333.515 408.865 336.663 406.754 338.434 C 404.6 340.237 401.122 343.47 398.634 346.83 C 397.34 343.915 402.349 338.772 404.294 337.042" transform="matrix(0, 0.921209, -1.08553, 0, 775.856134, -36.910188)"/>
    <path id="path2000" style="fill:#fdfccd;fill-opacity:1;fill-rule:evenodd;stroke:none" d="M 405.11 337.645 C 409.355 333.869 414.235 331.486 416.839 331.774 C 412.621 334.051 408.842 336.951 406.849 338.623 C 404.877 340.273 401.799 343.122 399.384 346.167 C 399.369 344.16 401.505 340.848 405.11 337.645" transform="matrix(0, 0.921209, -1.08553, 0, 776.061317, -36.997214)"/>
    <path id="path2002" style="fill:#7a7c81;fill-opacity:1;fill-rule:evenodd;stroke:none" d="M 411.629 413.574 C 409.572 411.742 406.989 409.867 404.118 408.606 C 402.884 408.065 400.372 407.099 398.424 407.717 C 402.942 410.047 407.061 413.195 409.173 414.966 C 411.325 416.769 414.801 420.002 417.289 423.362 C 418.584 420.447 413.575 415.304 411.629 413.574" transform="matrix(0, 0.921209, -1.08553, 0, 858.934339, 39.621446)"/>
    <path id="path2004" style="fill:#fdfccd;fill-opacity:1;fill-rule:evenodd;stroke:none" d="M 411.112 414.075 C 406.867 410.299 401.988 407.916 399.385 408.204 C 403.601 410.481 407.383 413.381 409.377 415.053 C 411.345 416.703 414.423 419.552 416.838 422.597 C 416.853 420.59 414.716 417.278 411.112 414.075" transform="matrix(0, 0.921209, -1.08553, 0, 859.028486, 39.432696)"/>
    <path id="path2006" style="fill:#c13789;fill-opacity:1;fill-rule:evenodd;stroke:none" d="M 262.652 465.764 L 261.468 357.221 L 261.472 357.188 C 262.295 351.219 262.612 345.104 262.612 339.08 C 262.612 331.424 262.132 323.162 260.564 315.643 L 260.556 315.606 C 259.466 265.942 372 265.945 370.915 315.606 L 370.906 315.643 C 369.338 323.162 368.86 331.424 368.86 339.08 C 368.86 345.104 369.176 351.219 369.999 357.188 L 370.004 357.223 L 368.921 406.566 L 368.777 465.747 C 368.771 468.813 366.477 471.368 363.36 471.775 C 354.262 472.965 345.123 474.151 335.983 475.01 C 329.092 475.657 322.215 476.081 315.291 476.073 C 308.461 476.065 301.683 475.629 294.891 474.977 C 285.927 474.115 276.972 472.931 268.049 471.737 C 264.961 471.323 262.685 468.804 262.652 465.764" transform="matrix(0, 0.921209, -1.08553, 0, 725.214862, 86.357769)"/>
    <path id="path2020" style="fill:url(#linearGradient2018);fill-opacity:1;fill-rule:evenodd;stroke:none" d="M 263.095 465.753 L 261.91 357.242 C 262.634 351.985 263.053 345.755 263.053 339.075 C 263.053 329.953 262.271 321.665 260.996 315.552 C 259.923 266.544 371.539 266.546 370.466 315.552 C 369.19 321.665 368.41 329.953 368.41 339.075 C 368.41 345.755 368.828 351.985 369.555 357.242 L 369.398 364.286 L 369.245 371.332 L 369.091 378.377 L 368.936 385.42 L 368.779 392.466 L 368.627 399.513 L 368.473 406.556 L 368.329 465.742 C 368.324 468.588 366.192 470.959 363.301 471.339 C 319.623 477.055 311.325 477.089 268.106 471.301 C 265.238 470.916 263.123 468.579 263.095 465.753" transform="matrix(0, 0.921209, -1.08553, 0, 725.209595, 86.361126)"/>
    <path id="path2022" style="fill:#c13789;fill-opacity:1;fill-rule:evenodd;stroke:none" d="M 262.663 380.298 C 219.799 394.843 213.64 393.345 171.557 379.772 L 176.006 366.537 C 176.798 364.185 179.232 361.231 182.901 362.162 C 205.129 367.828 228.031 367.482 250.214 362.162 C 253.899 361.283 256.172 364.21 257.111 366.537 L 262.663 380.298" transform="matrix(0, 0.921209, -1.08553, 0, 625.583464, 176.28575)"/>
    <path id="path2036" style="fill:url(#linearGradient2034);fill-opacity:1;fill-rule:evenodd;stroke:none" d="M 261.761 379.867 L 256.477 366.764 C 255.472 364.278 253.378 362.087 250.395 362.805 C 228.076 368.154 205.032 368.477 182.74 362.802 C 179.836 362.061 177.533 364.195 176.68 366.729 L 172.448 379.317 C 180.764 382.003 189.195 384.782 197.667 386.937 C 203.949 388.537 210.265 389.735 216.779 389.879 C 223.35 390.021 229.696 389.073 236.07 387.59 C 244.721 385.575 253.355 382.717 261.761 379.867" transform="matrix(0, 0.921209, -1.08553, 0, 625.560116, 176.274391)"/>
    <path id="path2038" style="fill:#c13789;fill-opacity:1;fill-rule:evenodd;stroke:none" d="M 339.449 409.673 C 332.211 323.119 440.68 323.121 433.441 409.673 L 432.593 409.388 C 400.287 398.476 372.605 398.476 340.299 409.388 L 339.449 409.673" transform="matrix(0, 0.921209, -1.08553, 0, 795.923911, 21.218949)"/>
    <path id="path2052" style="fill:url(#linearGradient2050);fill-opacity:1;fill-rule:evenodd;stroke:none" d="M 340.103 408.775 C 372.594 397.802 400.358 397.802 432.853 408.775 C 439.817 324.62 333.137 324.62 340.103 408.775" transform="matrix(0, 0.921209, -1.08553, 0, 795.958136, 21.189922)"/>
    <path id="path2066" style="fill:url(#linearGradient2064);fill-opacity:1;fill-rule:evenodd;stroke:none" d="M 421.84 362.691 C 404.133 342.821 373.406 342.826 355.702 362.689 L 356.936 406.644 C 378.69 401.097 398.851 401.094 420.606 406.644 L 421.84 362.691" transform="matrix(0, 0.921209, -1.08553, 0, 798.251427, 19.077719)"/>
    <path id="path2068" style="fill:#c13789;fill-opacity:1;fill-rule:evenodd;stroke:none" d="M 294.112 363.471 C 321.996 356.452 349.919 356.081 377.733 363.578 C 379.647 364.095 380.806 365.661 380.482 367.291 C 378.695 376.323 376.38 385.269 374.594 394.3 C 374.28 395.903 373.351 396.573 371.478 396.306 C 348.712 393.063 325.785 393.063 303.019 396.306 C 301.926 396.463 300.862 396.264 299.959 395.736 C 299.051 395.208 298.477 394.451 298.299 393.549 C 296.512 384.528 294.205 375.588 292.42 366.568 C 292.208 365.505 292.732 363.816 294.112 363.471" transform="matrix(0, 0.921209, -1.08553, 0, 745.940888, 67.27612)"/>
    <path id="path2076" style="fill:url(#radialGradient2074);fill-opacity:1;fill-rule:evenodd;stroke:none" d="M 300.062 393.313 C 298.099 383.409 296.139 376.237 294.179 366.333 C 294.073 365.793 294.256 365.264 294.642 364.863 C 322.156 357.939 349.673 357.541 377.187 364.962 C 378.27 365.253 378.922 366.134 378.74 367.056 C 376.776 376.969 374.817 384.153 372.854 394.067 C 372.79 394.38 372.652 394.657 372.434 394.891 C 372.225 394.907 372.012 394.902 371.791 394.87 C 348.769 391.592 325.747 391.592 302.724 394.87 C 302.096 394.959 301.516 394.853 300.998 394.549 C 300.477 394.245 300.163 393.834 300.062 393.313" transform="matrix(0, 0.921209, -1.08553, 0, 745.939593, 67.266662)"/>
    <path id="path2084" style="fill:url(#radialGradient2082);fill-opacity:1;fill-rule:evenodd;stroke:none" d="M 300.807 391.781 C 298.844 381.877 296.884 374.705 294.924 364.801 C 294.843 364.393 294.926 363.992 295.141 363.646 C 321.934 357.238 348.73 357.05 375.526 364.277 C 376.611 364.568 377.26 365.448 377.078 366.372 C 375.132 376.211 373.182 383.358 371.234 393.158 C 348.646 390.063 326.056 390.122 303.469 393.338 C 302.841 393.427 302.261 393.321 301.743 393.017 C 301.222 392.713 300.908 392.302 300.807 391.781" transform="matrix(0, 0.921209, -1.08553, 0, 744.277166, 66.580607)"/>
    <path id="path2086" style="fill:#8e9194;fill-opacity:1;fill-rule:evenodd;stroke:none" d="M 295.032 331.353 C 295.019 330.421 294.807 326.513 295.669 326.513 L 296.465 326.513 L 296.613 333.927 C 295.538 334.027 295.051 332.583 295.032 331.353" transform="matrix(0, 0.921209, -1.08553, 0, 654.272751, 57.722948)"/>
    <path id="path2098" style="fill:url(#linearGradient2096);fill-opacity:1;fill-rule:evenodd;stroke:none" d="M 296.423 333.613 C 295.522 333.698 295.291 332.047 295.285 331.391 C 295.27 330.473 295.134 326.833 295.709 326.833 C 295.843 326.833 295.951 326.833 296.286 326.833 C 296.332 329.12 296.376 331.323 296.423 333.613" transform="matrix(0, 0.921209, -1.08553, 0, 654.31041, 57.692529)"/>
    <path id="path2100" style="fill:#8e9194;fill-opacity:1;fill-rule:evenodd;stroke:none" d="M 296.582 425.34 C 296.591 424.408 296.806 420.5 295.942 420.5 L 295.149 420.5 L 295 427.914 C 296.073 428.014 296.563 426.57 296.582 425.34" transform="matrix(0, 0.921209, -1.08553, 0, 756.298134, 151.710242)"/>
    <path id="path2112" style="fill:url(#linearGradient2110);fill-opacity:1;fill-rule:evenodd;stroke:none" d="M 295.261 427.597 C 296.16 427.682 296.39 426.031 296.401 425.375 C 296.411 424.457 296.55 420.817 295.977 420.817 C 295.838 420.817 295.733 420.817 295.396 420.817 C 295.351 423.104 295.308 425.307 295.261 427.597" transform="matrix(0, 0.921209, -1.08553, 0, 756.333047, 151.676311)"/>
    <path id="path2114" style="fill:#c13789;fill-opacity:1;fill-rule:evenodd;stroke:none" d="M 239.267 408.899 L 237.946 345.826 C 237.891 343.224 239.6 340.999 242.104 340.407 C 262.576 335.58 283.44 335.379 303.913 340.375 C 306.399 340.983 308.084 343.196 308.031 345.781 L 306.71 408.755 C 306.666 410.86 305.53 412.643 303.65 413.55 C 292.438 418.962 253.337 419.236 242.248 413.658 C 240.411 412.731 239.309 410.976 239.267 408.899" transform="matrix(0, 0.921209, -1.08553, 0, 682.468465, 125.737236)"/>
    <path id="path2128" style="fill:url(#linearGradient2126);fill-opacity:1;fill-rule:evenodd;stroke:none" d="M 239.961 408.888 C 239.998 410.676 240.926 412.228 242.565 413.053 C 253.461 418.536 292.335 418.253 303.341 412.942 C 305.021 412.131 305.975 410.558 306.016 408.743 L 307.334 345.769 C 307.381 343.558 305.966 341.576 303.74 341.034 C 283.397 336.068 262.622 336.267 242.268 341.07 C 240.027 341.597 238.595 343.588 238.641 345.81 L 239.961 408.888" transform="matrix(0, 0.921209, -1.08553, 0, 682.468263, 125.738765)"/>
    <path id="path2130" style="fill:#c13789;fill-opacity:1;fill-rule:evenodd;stroke:none" d="M 312.571 314.643 C 315.213 316.911 316.943 322.144 317.865 325.591 C 319.626 332.201 320.435 339.483 320.757 346.355 L 320.758 346.4 L 320.758 346.449 C 320.758 349.705 319.636 353.088 318.022 355.766 C 316.976 357.503 314.604 360.713 312.433 359.461 C 311.692 359.03 311.301 358.219 311.19 357.32 L 311.179 357.222 L 311.176 357.122 C 310.834 343.457 310.321 329.798 309.979 316.136 L 309.884 312.338 L 312.571 314.643" transform="matrix(0, 0.921209, -1.08553, 0, 680.103422, 45.564311)"/>
    <path id="path2138" style="fill:url(#linearGradient2136);fill-opacity:1;fill-rule:evenodd;stroke:none" d="M 310.503 315.161 C 313.815 318.003 317.283 328.945 318.056 345.53 C 318.056 352.525 312.109 359.46 311.702 356.153 C 311.304 340.202 310.902 331.115 310.503 315.161" transform="matrix(0, 0.921209, -1.08553, 0, 679.106508, 46.56483)"/>
    <path id="path2140" style="fill:#c13789;fill-opacity:1;fill-rule:evenodd;stroke:none" d="M 268.672 316.971 C 268.514 320.387 268.231 323.798 267.858 327.189 C 267.341 331.892 265.476 345.898 262.594 353.596 C 261.314 357.018 259.758 358.392 257.255 360.542 L 257.35 356.744 C 257.692 343.079 258.205 329.422 258.547 315.755 L 258.55 315.656 L 258.561 315.56 C 259.246 309.974 268.544 311.525 268.675 316.826 L 268.676 316.897 L 268.672 316.971" transform="matrix(0, 0.921209, -1.08553, 0, 628.021045, 94.046272)"/>
    <path id="path2148" style="fill:url(#linearGradient2146);fill-opacity:1;fill-rule:evenodd;stroke:none" d="M 259.97 357.808 C 263.282 354.969 267.297 334.475 268.07 317.89 C 267.992 314.749 261.576 313.513 261.169 316.817 C 260.771 332.768 260.369 341.858 259.97 357.808" transform="matrix(0, 0.921209, -1.08553, 0, 629.121116, 93.11683)"/>
    <path id="path2150" style="fill:#c13789;fill-opacity:1;fill-rule:evenodd;stroke:none" d="M 318.068 396.995 C 315.429 399.263 313.699 404.496 312.778 407.943 C 311.014 414.553 310.209 421.835 309.885 428.707 L 309.885 428.752 L 309.885 428.801 C 309.885 432.057 311.003 435.44 312.622 438.118 C 313.667 439.855 316.04 443.065 318.207 441.813 C 318.949 441.382 319.341 440.571 319.451 439.672 L 319.463 439.574 L 319.466 439.474 C 319.807 425.809 320.32 412.15 320.66 398.488 L 320.757 394.69 L 318.068 396.995" transform="matrix(0, 0.921209, -1.08553, 0, 769.498974, 127.9163)"/>
    <path id="path2158" style="fill:url(#linearGradient2156);fill-opacity:1;fill-rule:evenodd;stroke:none" d="M 318.054 397.428 C 314.744 400.27 311.28 411.212 310.504 427.797 C 310.504 434.792 316.453 441.727 316.856 438.42 C 317.256 422.469 317.658 413.382 318.054 397.428" transform="matrix(0, 0.921209, -1.08553, 0, 768.409296, 128.832292)"/>
    <path id="path2160" style="fill:#c13789;fill-opacity:1;fill-rule:evenodd;stroke:none" d="M 257.258 398.818 C 257.418 402.234 257.699 405.645 258.076 409.036 C 258.487 412.797 259.761 422.515 261.733 430.193 C 263.205 435.93 264.624 438.911 268.676 442.389 L 268.579 438.591 C 268.239 424.926 267.726 411.269 267.385 397.602 L 267.382 397.503 L 267.37 397.407 C 266.683 391.821 257.387 393.372 257.258 398.673 L 257.255 398.744 L 257.258 398.818" transform="matrix(0, 0.921209, -1.08553, 0, 716.868432, 175.893287)"/>
    <path id="path2168" style="fill:url(#linearGradient2166);fill-opacity:1;fill-rule:evenodd;stroke:none" d="M 268.07 439.569 C 264.76 436.73 260.749 416.236 259.97 399.651 C 260.05 396.51 266.469 395.274 266.872 398.578 C 267.272 414.529 267.674 423.619 268.07 439.569" transform="matrix(0, 0.921209, -1.08553, 0, 717.875116, 174.877816)"/>
    <path id="path2170" style="fill:#c13789;fill-opacity:1;fill-rule:evenodd;stroke:none" d="M 328.777 329.588 C 328.263 328.151 328.064 326.573 328.892 325.207 C 329.922 323.51 332.246 322.694 334.077 322.15 C 336.554 321.416 339.081 320.913 341.534 320.096 C 342.424 319.799 343.302 319.464 344.146 319.066 L 344.761 318.777 L 344.939 319.419 C 345.443 321.255 345.948 323.092 346.452 324.929 L 346.6 325.46 L 346.051 325.603 C 340.521 327.048 334.99 328.495 329.456 329.942 L 328.95 330.075 L 328.777 329.588" transform="matrix(0, 0.921209, -1.08553, 0, 689.63953, 13.549856)"/>
    <path id="path2172" style="fill:#ed66b6;fill-opacity:1;fill-rule:evenodd;stroke:none" d="M 329.308 329.289 C 326.698 321.963 336.983 322.93 344.392 319.442 C 344.897 321.279 345.401 323.113 345.906 324.95 C 340.376 326.397 334.841 327.843 329.308 329.289" transform="matrix(0, 0.921209, -1.08553, 0, 689.508317, 13.549698)"/>
    <path id="path2174" style="fill:#c13789;fill-opacity:1;fill-rule:evenodd;stroke:none" d="M 338.872 333.044 L 337.076 326.513 L 339.343 325.922 L 341.137 332.453 L 338.872 333.044" transform="matrix(0, 0.921209, -1.08553, 0, 696.770159, 17.095039)"/>
    <path id="path2176" style="fill:#ed66b6;fill-opacity:1;fill-rule:evenodd;stroke:none" d="M 339.271 332.368 L 337.77 326.905 L 338.945 326.599 L 340.446 332.064 L 339.271 332.368" transform="matrix(0, 0.921209, -1.08553, 0, 696.772217, 17.094151)"/>
    <path id="path2178" style="fill:#c13789;fill-opacity:1;fill-rule:evenodd;stroke:none" d="M 346.153 435.168 C 346.666 433.731 346.867 432.153 346.036 430.787 C 345.009 429.09 342.681 428.274 340.852 427.73 C 338.379 426.996 335.848 426.493 333.394 425.676 C 332.506 425.379 331.628 425.044 330.782 424.646 L 330.167 424.357 L 329.991 424.999 C 329.487 426.835 328.983 428.672 328.478 430.509 L 328.331 431.04 L 328.878 431.183 C 334.408 432.628 339.941 434.075 345.474 435.522 L 345.978 435.655 L 346.153 435.168" transform="matrix(0, 0.921209, -1.08553, 0, 804.249387, 119.130194)"/>
    <path id="path2180" style="fill:#ed66b6;fill-opacity:1;fill-rule:evenodd;stroke:none" d="M 345.491 434.99 C 348.105 427.664 337.819 428.631 330.409 425.143 C 329.902 426.98 329.398 428.814 328.895 430.651 C 334.427 432.098 339.957 433.544 345.491 434.99" transform="matrix(0, 0.921209, -1.08553, 0, 804.250777, 119.249915)"/>
    <path id="path2182" style="fill:#c13789;fill-opacity:1;fill-rule:evenodd;stroke:none" d="M 339.34 428.511 L 341.135 421.98 L 338.868 421.389 L 337.077 427.92 L 339.34 428.511" transform="matrix(0, 0.921209, -1.08553, 0, 800.401954, 112.562484)"/>
    <path id="path2184" style="fill:#ed66b6;fill-opacity:1;fill-rule:evenodd;stroke:none" d="M 338.945 427.834 L 340.446 422.371 L 339.271 422.065 L 337.77 427.53 L 338.945 427.834" transform="matrix(0, 0.921209, -1.08553, 0, 800.403423, 112.560155)"/>
    <path id="path2186" style="fill:#c13789;fill-opacity:1;fill-rule:evenodd;stroke:none" d="M 188.136 378.458 C 187.305 378.356 186.367 377.986 186.316 377.028 C 186.299 376.728 186.342 376.588 186.468 376.356 C 187.471 374.51 188.697 372.801 189.701 370.956 C 190.162 370.108 191.752 369.794 192.622 370.103 C 205.005 374.519 237.361 374.316 249.841 370.095 L 250 370.043 L 250.168 370.033 C 251.033 369.987 252.285 370.12 252.741 370.959 C 253.746 372.804 254.972 374.514 255.977 376.362 C 256.105 376.599 256.159 376.785 256.115 377.108 C 255.992 378.026 255.172 378.189 254.451 378.423 C 249.802 379.93 244.52 380.719 239.661 381.237 C 233.559 381.891 227.361 382.154 221.222 382.148 C 215.085 382.143 208.894 381.869 202.795 381.211 C 197.979 380.691 192.759 379.917 188.136 378.458" transform="matrix(0, 0.921209, -1.08553, 0, 629.453677, 172.276353)"/>
    <path id="path2194" style="fill:url(#radialGradient2192);fill-opacity:1;fill-rule:evenodd;stroke:none" d="M 190.751 371.501 C 189.673 373.483 188.596 374.915 187.519 376.898 C 187.417 377.087 187.786 377.265 188.392 377.322 C 203.595 382.169 238.873 382.259 254.076 377.324 C 254.488 377.192 255.03 377.09 254.931 376.904 C 253.851 374.918 252.773 373.483 251.696 371.501 C 251.585 371.299 250.946 371.154 250.234 371.191 C 237.581 375.466 204.86 375.7 192.213 371.191 C 191.763 371.03 190.86 371.299 190.751 371.501" transform="matrix(0, 0.921209, -1.08553, 0, 629.454037, 172.274435)"/>
  </g>
  <path id="path2196" style="fill:#f4f4f5;fill-opacity:1;fill-rule:evenodd;stroke:none" d="M 624.899 490.088 C 624.015 491.708 622.497 492.785 620.721 493.291 C 620.575 493.413 620.432 493.536 620.283 493.655 L 619.148 494.572 L 610.757 492.515 C 608.713 492.557 606.667 492.012 604.889 490.999 C 603.331 490.106 601.975 488.939 600.873 487.518 C 595.676 480.834 597.277 470.71 600.372 463.417 C 600.853 458.833 603.364 454.587 607.415 452.324 C 614.633 444.393 624.589 440.792 634.568 445.803 L 637.925 445.633 L 638.867 446.871 C 638.972 447.012 639.076 447.152 639.179 447.294 C 641.239 448.431 642.725 450.364 642.836 452.823 C 642.943 455.124 641.825 457.085 640.072 458.418 C 640.005 458.544 639.94 458.668 639.872 458.791 C 640.08 458.985 640.277 459.197 640.452 459.428 C 642.067 461.528 641.817 464.455 640.835 466.763 C 639.831 469.121 637.819 471.4 635.107 471.605 C 634.221 471.672 633.347 471.503 632.549 471.12 C 632.371 471.033 632.2 470.993 632.001 471.006 C 630.68 471.11 629.295 473.127 628.775 474.185 C 628.288 475.172 627.388 477.904 628.351 478.844 C 628.951 479.432 629.401 480.145 629.664 480.945 C 630.473 483.421 629.337 486.067 627.688 487.917 C 626.917 488.784 625.963 489.561 624.899 490.088" transform="matrix(-0.573576, -0.819152, 0.819152, -0.573576, 591.676244, 1246.076486)"/>
  <path id="path2198" style="fill:#e9eae9;fill-opacity:1;fill-rule:evenodd;stroke:none" d="M 624.447 489.679 C 623.635 491.291 622.15 492.332 620.414 492.794 C 620.242 492.944 620.067 493.091 619.892 493.234 L 618.983 493.97 L 610.799 491.962 C 608.835 492.017 606.867 491.496 605.16 490.523 C 603.668 489.671 602.371 488.551 601.316 487.196 C 596.247 480.671 597.902 470.693 600.926 463.602 C 601.37 459.146 603.807 455.002 607.763 452.83 C 614.842 445.009 624.606 441.43 634.422 446.439 L 637.622 446.277 L 638.376 447.266 C 638.507 447.437 638.635 447.61 638.756 447.785 C 640.7 448.815 642.124 450.594 642.228 452.889 C 642.326 455.038 641.25 456.846 639.59 458.068 C 639.486 458.27 639.378 458.47 639.263 458.666 L 639.094 458.965 C 639.419 459.21 639.712 459.498 639.966 459.826 C 641.439 461.748 641.168 464.463 640.271 466.568 C 639.359 468.715 637.523 470.867 635.04 471.056 C 634.258 471.114 633.49 470.963 632.78 470.623 C 632.51 470.495 632.236 470.436 631.936 470.456 C 630.356 470.581 628.856 472.681 628.226 473.963 C 627.603 475.227 626.706 478.122 627.919 479.306 C 628.452 479.826 628.851 480.458 629.082 481.166 C 629.823 483.437 628.731 485.877 627.228 487.562 C 626.467 488.418 625.51 489.187 624.447 489.679" transform="matrix(-0.573576, -0.819152, 0.819152, -0.573576, 591.633433, 1246.080873)"/>
</svg>