<?xml version="1.0" encoding="utf-8"?>
<svg viewBox="0 0 45 80" xmlns="http://www.w3.org/2000/svg">
  <defs>
    <path d="M73.75 26.25L73.75 53.75L11.25 53.75L11.25 26.25L73.75 26.25Z" id="a5eDPpYLn"/>
    <path d="M50 40C50 35.86 46.64 32.5 42.5 32.5C38.36 32.5 35 35.86 35 40C35 44.14 38.36 47.5 42.5 47.5C46.64 47.5 50 44.14 50 40Z" id="a1kGIZ4k5F"/>
    <path d="M70 40C70 35.86 66.64 32.5 62.5 32.5C58.36 32.5 55 35.86 55 40C55 44.14 58.36 47.5 62.5 47.5C66.64 47.5 70 44.14 70 40Z" id="a7fsZJGMX"/>
    <path d="M30 40C30 35.86 26.64 32.5 22.5 32.5C18.36 32.5 15 35.86 15 40C15 44.14 18.36 47.5 22.5 47.5C26.64 47.5 30 44.14 30 40Z" id="a3S8rftQr8"/>
    <path d="M77.5 45.62C77.5 47.35 76.1 48.75 74.38 48.75C74.33 48.75 74.13 48.75 73.75 48.75L73.75 31.25C74.13 31.25 74.33 31.25 74.38 31.25C76.1 31.25 77.5 32.65 77.5 34.37C77.5 36.62 77.5 44.5 77.5 45.62Z" id="c3213tevC"/>
    <path d="M11.25 35L11.25 45L2.5 45L2.5 35L11.25 35Z" id="c1H0J8uT2C"/>
    <path d="M55 57.5L55 53.75L70 53.75L70 60L55 57.5Z" id="a10el03Q7"/>
    <path d="M33.75 57.5L33.75 53.75L48.75 53.75L48.75 60L33.75 57.5Z" id="d5MsaPAu"/>
    <path d="M13.75 57.5L13.75 53.75L28.75 53.75L28.75 60L13.75 57.5Z" id="aqypL1vF5"/>
    <path d="M55 22.5L55 26.25L70 26.25L70 20L55 22.5Z" id="e2T15H9KwO"/>
    <path d="M33.75 22.5L33.75 26.25L48.75 26.25L48.75 20L33.75 22.5Z" id="aIAAXjdD9"/>
    <path d="M13.75 22.5L13.75 26.25L28.75 26.25L28.75 20L13.75 22.5Z" id="b49gb5HCIt"/>
    <path d="M42.5 31.25C37.67 31.25 33.75 35.17 33.75 40C33.75 44.83 37.67 48.75 42.5 48.75C47.33 48.74 51.24 44.83 51.25 40C51.25 35.17 47.33 31.25 42.5 31.25ZM42.5 33.75C45.95 33.75 48.75 36.55 48.75 40C48.75 43.45 45.95 46.25 42.5 46.25C39.05 46.25 36.25 43.45 36.25 40C36.25 36.55 39.05 33.75 42.5 33.75Z" id="dxOlOtr9r"/>
    <path d="M62.5 31.25C57.67 31.25 53.75 35.17 53.75 40C53.75 44.83 57.67 48.75 62.5 48.75C67.33 48.74 71.24 44.83 71.25 40C71.25 35.17 67.33 31.25 62.5 31.25ZM62.5 33.75C65.95 33.75 68.75 36.55 68.75 40C68.75 43.45 65.95 46.25 62.5 46.25C59.05 46.25 56.25 43.45 56.25 40C56.25 36.55 59.05 33.75 62.5 33.75Z" id="aexcn4O1g"/>
    <path d="M22.5 31.25C17.67 31.25 13.75 35.17 13.75 40C13.75 44.83 17.67 48.75 22.5 48.75C27.33 48.74 31.24 44.83 31.25 40C31.25 35.17 27.33 31.25 22.5 31.25ZM22.5 33.75C25.95 33.75 28.75 36.55 28.75 40C28.75 43.45 25.95 46.25 22.5 46.25C19.05 46.25 16.25 43.45 16.25 40C16.25 36.55 19.05 33.75 22.5 33.75Z" id="a5Aaz34MBR"/>
    <path d="M32.5 57.5C32.5 58.11 32.94 58.63 33.54 58.73C35.04 58.98 47.04 60.98 48.54 61.23C49.23 61.35 49.87 60.89 49.98 60.2C49.99 60.14 50 60.07 50 60C50 59.67 50 58 50 55L53.75 55C53.75 56.5 53.75 57.33 53.75 57.5C53.75 58.11 54.19 58.63 54.79 58.73C56.29 58.98 68.29 60.98 69.79 61.23C70.48 61.35 71.12 60.89 71.23 60.2C71.24 60.14 71.25 60.07 71.25 60C71.25 59.67 71.25 58 71.25 55C72.75 55 73.58 55 73.75 55C74.44 55 75 54.44 75 53.75C75 53.37 75 50.33 75 49.95C77.15 49.64 78.75 47.8 78.75 45.62C78.75 44.5 78.75 35.5 78.75 34.37C78.75 32.2 77.15 30.36 75 30.05C75 29.67 75 26.63 75 26.25C75 25.56 74.44 25 73.75 25C73.58 25 72.75 25 71.25 25C71.25 22 71.25 20.33 71.25 20C71.25 19.31 70.69 18.75 70 18.75C69.93 18.75 69.86 18.76 69.79 18.77C68.29 19.02 56.29 21.02 54.79 21.27C54.19 21.37 53.75 21.89 53.75 22.5C53.75 22.67 53.75 23.5 53.75 25L50 25C50 22 50 20.33 50 20C50 19.31 49.44 18.75 48.75 18.75C48.68 18.75 48.61 18.76 48.54 18.77C47.04 19.02 35.04 21.02 33.54 21.27C32.94 21.37 32.5 21.89 32.5 22.5C32.5 22.67 32.5 23.5 32.5 25L30 25C30 22 30 20.33 30 20C30 19.31 29.44 18.75 28.75 18.75C28.68 18.75 28.61 18.76 28.54 18.77C27.04 19.02 15.04 21.02 13.54 21.27C12.94 21.37 12.5 21.89 12.5 22.5C12.5 22.67 12.5 23.5 12.5 25C11.75 25 11.33 25 11.25 25C10.56 25 10 25.56 10 26.25C10 26.75 10 29.25 10 33.75C5.5 33.75 3 33.75 2.5 33.75C1.81 33.75 1.25 34.31 1.25 35C1.25 36 1.25 44 1.25 45C1.25 45.69 1.81 46.25 2.5 46.25C3 46.25 5.5 46.25 10 46.25C10 50.75 10 53.25 10 53.75C10 54.44 10.56 55 11.25 55C11.33 55 11.75 55 12.5 55C12.5 56.5 12.5 57.33 12.5 57.5C12.5 58.11 12.94 58.63 13.54 58.73C15.04 58.98 27.04 60.98 28.54 61.23C29.23 61.35 29.87 60.89 29.98 60.2C29.99 60.14 30 60.07 30 60C30 59.67 30 58 30 55L32.5 55C32.5 56.33 32.5 57.17 32.5 57.5ZM68.75 55L68.75 58.52L56.25 56.44L56.25 55L68.75 55ZM47.5 55L47.5 58.52L35 56.44L35 55L47.5 55ZM15 25L15 23.56L27.5 21.47L27.5 25L15 25ZM35 25L35 23.56L47.5 21.47L47.5 25L35 25ZM56.25 25L56.25 23.56L68.75 21.47L68.75 25L56.25 25ZM76.25 45.62C76.25 46.42 75.75 47.13 75 47.39C75 45.91 75 34.09 75 32.61C75.75 32.87 76.25 33.58 76.25 34.37C76.25 36.62 76.25 44.5 76.25 45.62ZM3.75 43.75L3.75 36.25L10 36.25L10 43.75L3.75 43.75ZM12.5 52.5L12.5 27.5L72.5 27.5L72.5 52.5L12.5 52.5ZM27.5 58.52L15 56.44L15 55L27.5 55L27.5 58.52Z" id="bAhqYjEb"/>
  </defs>
  <g transform="matrix(0.165443, 0, 0, 0.16129, -19.853281, -1.290323)">
    <g>
      <path d="m168 40h176v400h-176z" fill="#3e3d42"/>
      <circle cx="256" cy="240" fill="#756e70" r="48"/>
      <circle cx="256" cy="112" fill="#756e70" r="48"/>
      <circle cx="256" cy="368" fill="#2af57b" r="48"/>
      <g fill="#756e70">
        <path d="m220 16h72a20 20 0 0 1 20 20v4a0 0 0 0 1 0 0h-112a0 0 0 0 1 0 0v-4a20 20 0 0 1 20-20z"/>
        <path d="m224 440h64v56h-64z"/>
        <path d="m368 160h-24v-96h40z"/>
        <path d="m368 296h-24v-96h40z"/>
        <path d="m368 424h-24v-96h40z"/>
        <path d="m144 160h24v-96h-40z"/>
        <path d="m144 296h24v-96h-40z"/>
        <path d="m144 424h24v-96h-40z"/>
      </g>
    </g>
    <g>
      <path d="m256 184a56 56 0 1 0 56 56 56.063 56.063 0 0 0 -56-56zm0 96a40 40 0 1 1 40-40 40.045 40.045 0 0 1 -40 40z"/>
      <path d="m256 56a56 56 0 1 0 56 56 56.063 56.063 0 0 0 -56-56zm0 96a40 40 0 1 1 40-40 40.045 40.045 0 0 1 -40 40z"/>
      <path d="m256 312a56 56 0 1 0 56 56 56.063 56.063 0 0 0 -56-56zm0 96a40 40 0 1 1 40-40 40.045 40.045 0 0 1 -40 40z"/>
      <path d="m368 304a8 8 0 0 0 7.89-6.68l16-96a8.007 8.007 0 0 0 -7.89-9.32h-32v-24h16a8 8 0 0 0 7.89-6.68l16-96a8.007 8.007 0 0 0 -7.89-9.32h-32v-16a8 8 0 0 0 -8-8h-24.29a28.043 28.043 0 0 0 -27.71-24h-72a28.043 28.043 0 0 0 -27.71 24h-24.29a8 8 0 0 0 -8 8v16h-32a8.007 8.007 0 0 0 -7.89 9.32l16 96a8 8 0 0 0 7.89 6.68h16v24h-32a8.007 8.007 0 0 0 -7.89 9.32l16 96a8 8 0 0 0 7.89 6.68h16v16h-32a8.007 8.007 0 0 0 -7.89 9.32l16 96a8 8 0 0 0 7.89 6.68h16v8a8 8 0 0 0 8 8h48v48a8 8 0 0 0 8 8h64a8 8 0 0 0 8-8v-48h48a8 8 0 0 0 8-8v-8h16a8 8 0 0 0 7.89-6.68l16-96a8.007 8.007 0 0 0 -7.89-9.32h-32v-16zm-16-232h22.56l-13.34 80h-9.22zm0 136h22.56l-13.34 80h-9.22zm-192 208h-9.22l-13.34-80h22.56zm0-128h-9.22l-13.34-80h22.56zm0-136h-9.22l-13.34-80h22.56zm60-128h72a12.014 12.014 0 0 1 11.31 8h-94.62a12.014 12.014 0 0 1 11.31-8zm60 464h-48v-40h48zm56-56h-160v-384h160zm38.56-96-13.34 80h-9.22v-80z"/>
    </g>
  </g>
</svg>